# xmcd
#
# Track frame offsets:
#	150
#	10928
#	21645
#	33632
#	46583
#	57573
#	68629
#	81296
#	91653
#	103160
#	113889
#	124134
#	134716
#	147667
#	159656
#	170046
#	180413
#	192715
#	203707
#	215543
#
# Disc length: 3009 seconds
#
# Revision: 1
# Processed by: cddbd v1.5.2PL0 Copyright (c) Steve Scherf et al.
# Submitted via: audiograbber 1.83.01
#
DISCID=300bbf14
DTITLE=Hank Locklin - Send Me The Pillow You Dream On CD3
DYEAR=1996
DGENRE=Country
TTITLE0=Picking Sweethearts (1953)
TTITLE1=I Like To Play With Your Kisses (1953)
TTITLE2=Golden Wristwatch (1953)
TTITLE3=(Sittin') Alone At A Table For Two (1953)
TTITLE4=I Can't Run Away (1953)
TTITLE5=Shadows (1953)
TTITLE6=The Red Rose (1953)
TTITLE7=Lessons In Love (1953)
TTITLE8=Let Me Be The One (1953)
TTITLE9=I'm Tired Of Bummin' Around (1953)
TTITLE10=I'll Be Blue Till Then (1963)
TTITLE11=In The House Of The Lord (1963)
TTITLE12=Mysteries Of Life (1954)
TTITLE13=Queen Of Hearts (1954)
TTITLE14=Empty Bottles, Empty Heart (1955)
TTITLE15=Who Will Be It (1955)
TTITLE16=Whispering Scandal (1954)
TTITLE17=Baby You Can Count Me In (1954)
TTITLE18=Let Me Confess (1955)
TTITLE19=I'll Always Be Standing By (1955)
EXTD=
EXTT0=
EXTT1=
EXTT2=
EXTT3=
EXTT4=
EXTT5=
EXTT6=
EXTT7=
EXTT8=
EXTT9=
EXTT10=
EXTT11=
EXTT12=
EXTT13=
EXTT14=
EXTT15=
EXTT16=
EXTT17=
EXTT18=
EXTT19=
PLAYORDER=
